<svg width="24" height="30" viewBox="0 0 24 30" fill="none" xmlns="http://www.w3.org/2000/svg">
<path d="M21.3713 28.4926C21.1011 28.6054 20.8104 28.6666 20.4998 28.6666H3.48567C2.20684 28.6666 1.16667 27.6189 1.1665 26.3336C1.1665 26.3335 1.1665 26.3334 1.1665 26.3333L1.18067 3.6669V3.66659C1.18067 2.38113 2.2209 1.33325 3.49984 1.33325H14.6261L22.8332 9.54036V24.5431L18.541 20.2397C19.1975 19.1189 19.5832 17.8178 19.5832 16.4166C19.5832 12.2304 16.186 8.83325 11.9998 8.83325C7.81369 8.83325 4.4165 12.2304 4.4165 16.4166C4.4165 20.6027 7.81369 23.9999 11.9998 23.9999C13.403 23.9999 14.7047 23.6132 15.8353 22.9567L21.3713 28.4926ZM11.9998 20.1666C9.92431 20.1666 8.24984 18.4921 8.24984 16.4166C8.24984 14.3411 9.92431 12.6666 11.9998 12.6666C14.0754 12.6666 15.7498 14.3411 15.7498 16.4166C15.7498 18.4921 14.0754 20.1666 11.9998 20.1666Z" fill="white" stroke="black"/>
</svg>
